<?xml version="1.0" encoding="UTF-8" standalone="no"?>
<svg
   xmlns:dc="http://purl.org/dc/elements/1.1/"
   xmlns:cc="http://creativecommons.org/ns#"
   xmlns:rdf="http://www.w3.org/1999/02/22-rdf-syntax-ns#"
   xmlns:svg="http://www.w3.org/2000/svg"
   xmlns="http://www.w3.org/2000/svg"
   viewBox="0 0 563.67999 143.74667"
   height="143.74667"
   width="563.67999"
   xml:space="preserve"
   id="svg2"
   version="1.1"><metadata
     id="metadata8"><rdf:RDF><cc:Work
         rdf:about=""><dc:format>image/svg+xml</dc:format><dc:type
           rdf:resource="http://purl.org/dc/dcmitype/StillImage" /></cc:Work></rdf:RDF></metadata><defs
     id="defs6" /><g
     transform="matrix(1.3333333,0,0,-1.3333333,0,143.74667)"
     id="g10"><g
       transform="scale(0.1)"
       id="g12"><path
         id="path14"
         style="fill:#5d636d;fill-opacity:1;fill-rule:nonzero;stroke:none"
         d="m 114.43,645.012 h 262.113 c 0,103.535 -83.688,134.511 -123.984,133.965 C 197.875,778.254 132.773,746.398 114.43,645.012 Z M 390.383,570.57 H 114.43 c 15.109,-128.429 112.281,-136.164 148.234,-138.261 55.527,-3.243 89.52,10.339 137.426,59.832 17.57,18.125 33.015,24.179 45.523,24.179 13.45,0 24.305,-3.672 32.633,-11.043 8.34,-7.343 12.5,-17.773 12.5,-31.203 0,-11.863 -4.641,-25.703 -13.93,-41.531 -9.293,-15.852 -23.3,-31.055 -42.027,-45.605 -18.715,-14.583 -42.234,-26.7 -70.574,-36.27 -28.34,-9.621 -60.902,-14.414 -97.699,-14.414 -84.211,0 -149.676,23.984 -196.4183,72.019 C 23.3594,456.32 0,521.438 0,603.707 c 0,38.75 5.78516,74.684 17.293,107.809 11.5273,33.136 28.3164,61.543 50.3906,85.234 22.1016,23.703 49.3124,41.855 81.6294,54.504 32.363,12.644 68.207,18.953 107.574,18.953 51.218,0 95.176,-10.801 131.801,-32.402 36.656,-21.641 64.121,-49.532 82.359,-83.789 18.254,-34.258 27.387,-69.141 27.387,-104.684 0,-32.992 -9.454,-54.359 -28.344,-64.105 -18.899,-9.786 -45.438,-14.657 -79.707,-14.657" /><path
         id="path16"
         style="fill:#5d636d;fill-opacity:1;fill-rule:nonzero;stroke:none"
         d="m 1989.65,645.012 h 262.13 c 0,103.535 -83.68,134.511 -124,133.965 -54.67,-0.723 -119.8,-32.579 -138.13,-133.965 z M 2265.6,570.57 h -275.95 c 15.12,-128.429 112.27,-136.164 148.23,-138.261 55.55,-3.243 89.52,10.339 137.44,59.832 17.57,18.125 33.02,24.179 45.52,24.179 13.46,0 24.31,-3.672 32.63,-11.043 8.34,-7.343 12.51,-17.773 12.51,-31.203 0,-11.863 -4.65,-25.703 -13.95,-41.531 -9.28,-15.852 -23.29,-31.055 -42.02,-45.605 -18.71,-14.583 -42.25,-26.7 -70.59,-36.27 -28.31,-9.621 -60.89,-14.414 -97.67,-14.414 -84.23,0 -149.69,23.984 -196.43,72.019 -46.74,48.047 -70.11,113.165 -70.11,195.434 0,38.75 5.8,74.684 17.3,107.809 11.52,33.136 28.34,61.543 50.4,85.234 22.1,23.703 49.32,41.855 81.62,54.504 32.35,12.644 68.21,18.953 107.57,18.953 51.23,0 95.18,-10.801 131.8,-32.402 36.65,-21.641 64.13,-49.532 82.37,-83.789 18.26,-34.258 27.38,-69.141 27.38,-104.684 0,-32.992 -9.46,-54.359 -28.35,-64.105 -18.88,-9.786 -45.44,-14.657 -79.7,-14.657" /><path
         id="path18"
         style="fill:#5d636d;fill-opacity:1;fill-rule:nonzero;stroke:none"
         d="M 818.754,389.973 723.691,529.699 626.234,389.973 c -14.089,-19.551 -26.019,-33.446 -35.769,-41.766 -9.777,-8.32 -22.168,-12.5 -37.235,-12.5 -16.636,0 -30.789,5.223 -42.492,15.606 -11.699,10.39 -17.508,22.304 -17.508,35.781 0,13.758 8.958,33.426 26.899,59.07 l 118.57,169.961 -105.148,141.672 c -18.254,23.348 -27.375,43.691 -27.375,60.996 0,13.426 5.465,25.117 16.347,35.027 10.856,9.942 25.122,14.887 42.743,14.887 15.363,0 28.07,-4.32 38.152,-12.953 10.094,-8.652 21.871,-22.266 35.281,-40.82 l 84.992,-116.211 82.598,116.211 c 13.766,19.199 25.703,32.98 35.797,41.308 10.066,8.321 22.621,12.465 37.684,12.465 17.285,0 31.585,-4.887 42.996,-14.652 11.316,-9.746 17,-21.512 17,-35.262 0,-9.941 -2.328,-19.461 -6.914,-28.586 -4.692,-9.109 -11.778,-19.941 -21.391,-32.41 L 806.289,616.125 924.922,446.164 c 18.535,-26.551 27.844,-46.59 27.844,-60.019 0,-13.79 -5.762,-25.633 -17.297,-35.536 -11.52,-9.941 -25.762,-14.902 -42.731,-14.902 -15.082,0 -27.773,4.324 -38.195,12.988 -10.395,8.621 -22.313,22.383 -35.789,41.278" /><path
         id="path20"
         style="fill:#5d636d;fill-opacity:1;fill-rule:nonzero;stroke:none"
         d="m 1363.34,604.621 c 0,34.551 -5.25,64.277 -15.82,89.074 -10.51,24.793 -25.13,43.836 -43.88,57.137 -18.72,13.262 -39.43,19.922 -62.16,19.922 -36.17,0 -66.7,-14.238 -91.48,-42.734 -24.81,-28.497 -37.2,-70.43 -37.2,-125.801 0,-52.188 12.29,-92.774 36.94,-121.727 24.67,-28.976 55.23,-43.469 91.74,-43.469 21.77,0 41.93,6.34 60.47,18.977 18.6,12.645 33.44,31.602 44.64,56.902 11.2,25.293 16.75,55.84 16.75,91.719 z m -256.77,190.625 v -15.828 c 51.98,81.914 133.46,88.34 167.07,88.34 40.34,0 77.41,-10.41 111.29,-31.203 33.87,-20.828 60.71,-51.231 80.4,-91.231 19.66,-40.039 29.51,-87.402 29.51,-142.148 0,-40.332 -5.69,-77.383 -17.03,-111.172 -11.36,-33.789 -26.98,-62.078 -46.86,-84.981 -19.79,-22.89 -43.22,-40.496 -70.23,-52.832 -27,-12.304 -76.03,-23.398 -120.51,-17.226 -41.76,5.801 -97.76,26.953 -133.64,87.59 V 173.832 c 0,-57.668 -21,-86.4765 -62.93,-86.4765 -24.66,0 -40.98,7.4609 -48.972,22.3555 -8.012,14.871 -12.016,36.562 -12.016,65.047 v 619.531 c 0,24.961 5.453,43.633 16.352,55.957 10.846,12.305 25.726,18.461 44.636,18.461 18.56,0 33.68,-6.301 45.38,-18.977 11.68,-12.628 17.55,-30.792 17.55,-54.484" /><path
         id="path22"
         style="fill:#5d636d;fill-opacity:1;fill-rule:nonzero;stroke:none"
         d="M 1659.99,524.906 V 415.422 c 0,-26.57 -6.25,-46.504 -18.7,-59.793 -12.49,-13.274 -28.32,-19.922 -47.55,-19.922 -18.9,0 -34.43,6.738 -46.57,20.164 -12.18,13.438 -18.27,33.301 -18.27,59.551 v 364.922 c 0,58.918 21.31,88.363 63.88,88.363 53.08,0 60.18,-40.687 62.92,-69.437 30.42,56.699 86.75,69.437 114.29,69.437 27.51,0 54.23,-6.867 80.17,-20.637 25.94,-13.781 38.9,-32.031 38.9,-54.738 0,-16.016 -5.54,-29.238 -16.57,-39.625 -11.04,-10.434 -22.98,-15.609 -35.78,-15.609 -4.79,0 -16.39,2.98 -34.83,8.886 -18.4,5.938 -98.17,23.106 -124.12,-51.132 -6.9,-19.774 -11.35,-43.457 -13.92,-70.84 -2.56,-27.364 -3.85,-60.731 -3.85,-100.106" /><path
         id="path24"
         style="fill:#5d636d;fill-opacity:1;fill-rule:nonzero;stroke:none"
         d="m 3321.94,507.133 c 0,-36.184 -8.78,-67.149 -26.38,-92.903 -17.63,-25.789 -43.61,-45.312 -78.05,-58.601 -34.41,-13.274 -76.28,-19.922 -125.56,-19.922 -47.06,0 -87.39,7.215 -120.99,21.609 -33.63,14.395 -58.41,32.422 -74.43,54.036 -15.99,21.589 -24.04,43.269 -24.04,65.046 0,14.407 5.13,26.739 15.39,36.985 10.23,10.242 23.28,13.914 38.91,15.359 26.57,2.473 44.47,-27.312 52.79,-38.418 16.48,-21.961 26.58,-32.89 48.29,-46.23 18.7,-11.524 44.22,-23.387 76.55,-23.387 26.28,0 47.82,5.84 64.6,17.539 16.81,11.68 25.21,25.059 25.21,40.086 0,23.066 -8.73,39.836 -26.15,50.41 -17.45,10.567 -46.19,20.645 -86.23,30.254 -45.12,11.203 -81.85,22.969 -110.19,35.313 -28.33,12.316 -50.99,28.554 -67.93,48.722 -16.96,20.145 -25.46,44.961 -25.46,74.442 0,26.234 7.86,51.035 23.55,74.394 15.64,23.379 38.77,42.024 69.35,55.969 30.61,13.914 67.49,20.871 110.68,20.871 33.95,0 64.45,-3.519 91.48,-10.539 27.05,-7.063 49.64,-16.504 67.71,-28.352 18.09,-11.836 31.87,-24.941 41.28,-39.375 9.46,-14.402 14.19,-28.484 14.19,-42.265 0,-15.02 -5.05,-27.352 -15.13,-36.953 -10.09,-9.61 -24.41,-14.422 -42.96,-14.422 -13.47,0 -24.91,3.855 -34.35,11.531 -9.43,7.695 -20.23,19.238 -32.42,34.57 -9.89,12.793 -21.58,23.047 -35.02,30.743 -13.43,7.675 -31.73,14.57 -54.78,14.57 -23.68,0 -81.08,-10.985 -82.58,-55.879 -0.44,-13.75 5.77,-28.086 17.3,-36.895 11.53,-8.789 27.03,-16.093 46.57,-21.855 19.53,-5.77 46.41,-9.766 80.69,-18.055 40.65,-9.941 73.85,-21.769 99.62,-35.539 25.77,-13.777 45.31,-30.027 58.6,-48.75 13.27,-18.73 19.89,-40.086 19.89,-64.109" /><path
         id="path26"
         style="fill:#5d636d;fill-opacity:1;fill-rule:nonzero;stroke:none"
         d="m 2846.72,507.133 c 0,-36.184 -8.79,-67.149 -26.41,-92.903 -17.6,-25.789 -43.6,-45.312 -78.04,-58.601 -34.41,-13.274 -76.28,-19.922 -125.55,-19.922 -47.07,0 -87.4,7.215 -121.02,21.609 -33.61,14.395 -58.4,32.422 -74.4,54.036 -16.02,21.589 -24.03,43.269 -24.03,65.046 0,14.407 5.11,26.739 15.36,36.985 10.24,10.242 23.3,13.914 38.92,15.359 26.57,2.473 44.49,-27.312 52.8,-38.418 16.48,-21.961 26.56,-32.89 48.29,-46.23 18.7,-11.524 44.22,-23.387 76.55,-23.387 26.28,0 47.8,5.84 64.6,17.539 16.81,11.68 25.2,25.059 25.2,40.086 0,23.066 -8.73,39.836 -26.17,50.41 -17.44,10.567 -46.16,20.645 -86.22,30.254 -45.12,11.203 -81.82,22.969 -110.17,35.313 -28.32,12.316 -50.99,28.554 -67.94,48.722 -16.98,20.145 -25.45,44.961 -25.45,74.442 0,26.234 7.86,51.035 23.54,74.394 15.65,23.379 38.76,42.024 69.36,55.969 30.59,13.914 67.48,20.871 110.66,20.871 33.96,0 64.47,-3.519 91.5,-10.539 27.04,-7.063 49.61,-16.504 67.69,-28.352 18.1,-11.836 31.88,-24.941 41.3,-39.375 9.44,-14.402 14.2,-28.484 14.2,-42.265 0,-15.02 -5.07,-27.352 -15.15,-36.953 -10.09,-9.61 -24.41,-14.422 -42.96,-14.422 -13.47,0 -24.91,3.855 -34.35,11.531 -9.43,7.695 -20.24,19.238 -32.41,34.57 -9.91,12.793 -21.59,23.047 -35.02,30.743 -13.45,7.675 -31.73,14.57 -54.8,14.57 -23.66,0 -81.08,-10.985 -82.57,-55.879 -0.46,-13.75 5.77,-28.086 17.29,-36.895 11.53,-8.789 27.04,-16.093 46.59,-21.855 19.51,-5.77 46.4,-9.766 80.68,-18.055 40.66,-9.941 73.85,-21.769 99.61,-35.539 25.78,-13.777 45.32,-30.027 58.62,-48.75 13.27,-18.73 19.9,-40.086 19.9,-64.109" /><path
         id="path28"
         style="fill:#5d636d;fill-opacity:1;fill-rule:nonzero;stroke:none"
         d="m 3925.43,163.742 c -75.25,-140.0623 -202.46,-71.4529 -134.05,24.805 33.38,46.945 121,77.324 173.09,107.121 -16.6,-93.234 -29.84,-114.797 -39.04,-131.926 z m -402.29,641.817 c 17.62,128.418 39.65,233.241 93.24,229.311 23.55,-1.73 39.6,-53.245 25.12,-111.546 -21.92,-88.176 -78.4,-205.812 -141.56,-282.441 5.16,55.906 14.9,110.801 23.2,164.676 z m 670.23,-317.5 c -16.63,-28.133 -53.3,-69.286 -87.85,-80.977 34.18,204.016 60.38,330.578 73.02,416.856 4.87,33.171 -38.47,56.503 -75.73,38.683 -41.61,-19.906 -61.11,-90.488 -74.56,-147.433 -19.71,-74.579 -104.84,-326.415 -223.74,-316.875 -23.76,1.906 -36.69,17.617 -35.73,52.832 2.96,109.296 55.95,299.843 74.59,374.437 2.05,9.332 -2.34,17.859 -13.2,25.625 -10.9,7.77 -48.43,27.566 -101.2,-0.773 -20.74,-13.489 -41.53,-105.071 -68.45,-232.473 -8.29,-43.496 -15.46,-82.891 -15.46,-118.086 0,-19.59 2.14,-37.566 5.98,-53.973 -36.45,-38.566 -61.95,-48.722 -101.48,-48.8 -68.94,-0.137 -64.1,97.375 -52.82,158.312 62.11,60.859 174.01,211.805 191.67,386.219 7.76,76.417 -35.53,129.747 -70.47,135.177 -74.96,10.39 -147.58,-43.95 -192.94,-168.603 -15.39,-42.258 -75.69,-230.012 -75.36,-400.969 0.17,-89.336 54.9,-156.492 128.45,-172.039 11.38,-2.062 22.27,-3.105 32.63,-3.105 48.67,0 96.33,20.183 142.94,60.594 4.26,3.808 8.36,7.734 12.4,11.718 21.91,-42.226 58.94,-66.785 101.18,-70.761 169.09,-15.985 216.81,130.273 219.93,129.257 2.07,-1.035 -6.31,-35.418 -16.54,-101.375 -142.22,-57.754 -202.86,-98.273 -233.22,-157.297 -45.67,-88.789 2.05,-184.5386 83.32,-199.58156 192.27,-35.60934 242.76,143.34356 256,202.60956 8.81,39.414 24.24,137.676 24.24,137.676 90.77,27.511 126.3,122.472 126.59,134.55 1,41.465 -19.08,34.102 -34.19,8.575" /></g></g></svg>